<svg xmlns="http://www.w3.org/2000/svg" width="256" height="256" viewBox="0 0 128 128">
<rect width="128" height="128" fill="#a9563f"/>
<rect x="0" y="0" width="128" height="74" fill="#b8644b"/>
<g fill="#c4705a"><rect x="4" y="6" width="56" height="26" rx="2"/><rect x="68" y="6" width="56" height="26" rx="2"/><rect x="-24" y="40" width="56" height="26" rx="2"/><rect x="36" y="40" width="56" height="26" rx="2"/><rect x="100" y="40" width="56" height="26" rx="2"/></g>
<rect x="0" y="74" width="128" height="54" fill="#8c4533"/>
<g fill="#97503c"><rect x="4" y="80" width="56" height="18" rx="2"/><rect x="68" y="80" width="56" height="18" rx="2"/><rect x="-24" y="104" width="56" height="18" rx="2"/><rect x="36" y="104" width="56" height="18" rx="2"/><rect x="100" y="104" width="56" height="18" rx="2"/></g>
<rect x="0" y="72" width="128" height="5" fill="#d48a6f"/>
</svg>
