<svg xmlns="http://www.w3.org/2000/svg" width="256" height="320" viewBox="0 0 128 160">
<g transform="translate(128 0) scale(-1 1)">
<ellipse cx="64" cy="152" rx="26.9" ry="9.0" fill="#1f2a14" fill-opacity="0.12"/><ellipse cx="64" cy="152" rx="24.0" ry="7.2" fill="#1f2a14" fill-opacity="0.18"/>
<path d="M51 140 L51 152 M73 140 L73 152" fill="none" stroke="#3b4a6b" stroke-width="9" stroke-linecap="round" stroke-linejoin="round"/><path d="M36 140 Q34 102 62 98 Q90 102 88 140 Z" fill="#3d8fe0" stroke="#2c5482" stroke-width="2.5" stroke-linejoin="round" stroke-linecap="round"/><path d="M36 128 L88 128 L88 140 L36 140 Z" fill="#3b4a6b"/>
<circle cx="74" cy="116" r="8" fill="#f6c79e" stroke="#897061" stroke-width="2.5" stroke-linejoin="round" stroke-linecap="round"/>
<circle cx="64" cy="78" r="24" fill="#f6c79e" stroke="#897061" stroke-width="2.5" stroke-linejoin="round" stroke-linecap="round"/>
<circle cx="76" cy="83" r="3.4" fill="#3a2e2a"/>
<path d="M74 93 Q79 95 83 91" fill="none" stroke="#a0523d" stroke-width="2.5" stroke-linecap="round" stroke-linejoin="round"/>
<circle cx="70" cy="91" r="4.5" fill="#f19b8a" fill-opacity="0.55"/>
<ellipse cx="64" cy="62" rx="34" ry="15" fill="#f2c14e" stroke="#876c39" stroke-width="2.5" stroke-linejoin="round" stroke-linecap="round"/><ellipse cx="64" cy="57" rx="19" ry="12" fill="#e8b03b" stroke="#826430" stroke-width="2.5" stroke-linejoin="round" stroke-linecap="round"/><path d="M45 60 Q64 67 83 60" fill="none" stroke="#d9534f" stroke-width="4" stroke-linecap="round" stroke-linejoin="round"/>
</g>
</svg>
